<?xml version="1.0" standalone="no"?>
<!DOCTYPE svg PUBLIC "-//W3C//DTD SVG 20010904//EN"
 "http://www.w3.org/TR/2001/REC-SVG-20010904/DTD/svg10.dtd">
<svg version="1.0" xmlns="http://www.w3.org/2000/svg"
 width="1772.000000pt" height="1772.000000pt" viewBox="0 0 1772.000000 1772.000000"
 preserveAspectRatio="xMidYMid meet">

<g transform="translate(0.000000,1772.000000) scale(0.100000,-0.100000)"
fill="#000000" stroke="none">
<path d="M170 8315 l0 -2785 3130 0 3130 0 0 50 0 50 5345 0 5345 0 0 1229 c0
1203 0 1230 20 1272 25 56 25 69 0 69 -16 0 -20 7 -20 35 l0 35 -5345 0 -5345
0 0 110 0 110 5382 2 c5140 3 5383 4 5386 21 2 9 -15 46 -37 82 l-41 65 0
1195 0 1195 -5345 0 -5345 0 0 25 0 25 -3130 0 -3130 0 0 -2785z"/>
</g>
</svg>
