<?xml version="1.0" encoding="iso-8859-1"?>
<!-- Generator: Adobe Illustrator 19.0.0, SVG Export Plug-In . SVG Version: 6.00 Build 0)  -->
<svg version="1.1" id="Layer_1" xmlns="http://www.w3.org/2000/svg" xmlns:xlink="http://www.w3.org/1999/xlink" x="0px" y="0px"
	 viewBox="0 0 512 512" style="enable-background:new 0 0 512 512;" xml:space="preserve">
<path style="fill:#CAD0D1;" d="M365.972,199.593v-90.954C365.972,48.639,316.737,0,256,0S146.028,48.639,146.028,108.639v90.954
	H365.972z"/>
<path style="opacity:0.2;fill:#FFFFFF;enable-background:new    ;" d="M256,0c-23.16,0-44.644,7.078-62.368,19.157
	c12.585-4.953,26.311-7.68,40.683-7.68c60.737,0,109.972,48.639,109.972,108.639v79.477h21.685v-90.954
	C365.972,48.639,316.737,0,256,0z"/>
<path style="fill:#48587C;" d="M283.907,468.345v-52.194c-9.092,1.437-18.411,2.193-27.907,2.193
	c-8.796,0-17.439-0.649-25.893-1.885v51.885L283.907,468.345L283.907,468.345z"/>
<path style="fill:#384463;" d="M256,426.429c-101.538,0-184.145-81.648-184.145-182.009v-27.771c0-4.465,3.618-8.084,8.084-8.084
	h37.74c4.465,0,8.084,3.62,8.084,8.084s-3.62,8.084-8.084,8.084H88.023v19.687c0,91.445,75.355,165.84,167.977,165.84
	s167.977-74.396,167.977-165.84v-19.687h-31.778c-4.465,0-8.084-3.62-8.084-8.084s3.62-8.084,8.084-8.084h39.863
	c4.464,0,8.084,3.62,8.084,8.084v27.771C440.145,344.781,357.538,426.429,256,426.429z"/>
<path style="fill:#48587C;" d="M376.88,216.65v27.771c0,65.95-54.119,119.414-120.88,119.414s-120.88-53.464-120.88-119.414V216.65
	H376.88z"/>
<path style="opacity:0.1;enable-background:new    ;" d="M168.69,244.421V216.65h-33.57v27.771
	c0,65.95,54.119,119.414,120.88,119.414c5.697,0,11.298-0.398,16.785-1.151C213.971,354.611,168.69,304.743,168.69,244.421z"/>
<path style="fill:#46D8BA;" d="M396.054,218.54c0,12.199-10.011,22.09-22.361,22.09H138.307c-12.35,0-22.361-9.891-22.361-22.09l0,0
	c0-12.2,10.011-22.09,22.361-22.09h235.385C386.042,196.451,396.054,206.341,396.054,218.54L396.054,218.54z"/>
<path style="opacity:0.1;enable-background:new    ;" d="M161.145,218.54c0-12.2,10.011-22.09,22.361-22.09h-45.199
	c-12.35,0-22.361,9.89-22.361,22.09c0,12.199,10.011,22.09,22.361,22.09h45.199C171.156,240.632,161.145,230.741,161.145,218.54z"/>
<path style="fill:#FFFFFF;" d="M286.182,334.374c-3.32,0-6.43-2.06-7.613-5.363c-1.504-4.205,0.685-8.831,4.889-10.335
	c19.679-7.038,36.153-21.742,45.2-40.341c1.954-4.014,6.793-5.686,10.807-3.733c4.014,1.953,5.686,6.792,3.733,10.806
	c-10.88,22.368-30.67,40.043-54.295,48.493C288.004,334.221,287.085,334.374,286.182,334.374z"/>
<g>
	<path style="fill:#48587C;" d="M206.918,89.465h-59.183c-0.95,5.268-1.513,10.667-1.665,16.169h60.846
		c4.465,0,8.084-3.62,8.084-8.084C215.002,93.085,211.383,89.465,206.918,89.465z"/>
	<path style="fill:#48587C;" d="M206.918,154.139h-60.89v16.169h60.89c4.465,0,8.084-3.62,8.084-8.084
		C215.002,157.759,211.383,154.139,206.918,154.139z"/>
	<path style="fill:#48587C;" d="M299.362,105.634h66.567c-0.151-5.501-0.715-10.9-1.664-16.169h-64.903
		c-4.465,0-8.084,3.62-8.084,8.084C291.278,102.014,294.897,105.634,299.362,105.634z"/>
	<path style="fill:#48587C;" d="M299.362,121.802c-4.465,0-8.084,3.62-8.084,8.084c0,4.465,3.62,8.084,8.084,8.084h66.611v-16.169
		C365.973,121.802,299.362,121.802,299.362,121.802z"/>
	<path style="fill:#48587C;" d="M291.278,162.222c0,4.465,3.62,8.084,8.084,8.084h66.611v-16.169h-66.611
		C294.897,154.139,291.278,157.759,291.278,162.222z"/>
	<path style="fill:#48587C;" d="M206.918,121.802h-60.89v16.169h60.89c4.465,0,8.084-3.62,8.084-8.084
		C215.002,125.421,211.383,121.802,206.918,121.802z"/>
</g>
<path style="fill:#46D8BA;" d="M162.345,512c-2.372,0-4.636-0.987-6.25-2.725c-1.614-1.738-2.433-4.069-2.257-6.433
	c2.518-34.087,31.281-60.788,65.484-60.788h73.358c34.202,0,62.966,26.701,65.483,60.788c0.174,2.366-0.643,4.696-2.257,6.433
	c-1.613,1.738-3.878,2.725-6.25,2.725H162.345z"/>
<path style="opacity:0.1;enable-background:new    ;" d="M186.444,502.841c2.518-34.087,31.281-60.788,65.483-60.788h-32.606
	c-34.202,0-62.966,26.701-65.484,60.788c-0.174,2.366,0.643,4.696,2.257,6.433c1.613,1.738,3.878,2.725,6.25,2.725h32.606
	c-2.372,0-4.635-0.987-6.25-2.725C187.087,507.537,186.269,505.207,186.444,502.841z"/>
<g>
</g>
<g>
</g>
<g>
</g>
<g>
</g>
<g>
</g>
<g>
</g>
<g>
</g>
<g>
</g>
<g>
</g>
<g>
</g>
<g>
</g>
<g>
</g>
<g>
</g>
<g>
</g>
<g>
</g>
</svg>
