<?xml version="1.0" encoding="iso-8859-1"?>
<!-- Generator: Adobe Illustrator 19.0.0, SVG Export Plug-In . SVG Version: 6.00 Build 0)  -->
<svg version="1.1" id="Layer_1" xmlns="http://www.w3.org/2000/svg" xmlns:xlink="http://www.w3.org/1999/xlink" x="0px" y="0px"
	 viewBox="0 0 512.008 512.008" style="enable-background:new 0 0 512.008 512.008;" xml:space="preserve">
<circle style="fill:#006775;" cx="256.004" cy="256.004" r="256.004"/>
<path style="fill:#055661;" d="M511.684,268.678l-73.591-73.591l-18.612,18.612l-81.039-81.039L103.427,367.674L247.603,511.85
	c2.794,0.09,5.589,0.151,8.405,0.151c137.134,0,249.077-107.826,255.684-243.319L511.684,268.678z"/>
<rect x="194.978" y="160.077" transform="matrix(0.9594 0.2821 -0.2821 0.9594 88.0771 -74.6924)" style="fill:#F9F9F9;" width="216.921" height="216.921"/>
<path style="fill:#E6E6E6;" d="M438.089,195.087l-61.187,208.114l-208.114-61.19L438.089,195.087z"/>
<rect x="216.769" y="181.682" transform="matrix(0.9594 0.2821 -0.2821 0.9594 83.5401 -76.7708)" style="fill:#87AAFF;" width="183.237" height="140.119"/>
<path style="fill:#663333;" d="M316.497,273.252c0.076,0.137,0.155,0.288,0.234,0.449c1.396,2.773,3.698,8.966,2.18,17.666
	c-2.1,12.063-8.815,16.857-8.815,16.857c1.892,1.59,3.729,2.399,5.492,2.241c0,0,6.056-6.413,6.629-19.687
	c0.457-10.595-3.014-16.461-4.435-18.395c0.018-0.043,0.032-0.083,0.043-0.129c0.216-0.733-0.205-1.511-0.942-1.727
	s-1.511,0.205-1.727,0.942c-0.216,0.737,0.205,1.511,0.942,1.727C316.23,273.234,316.363,273.252,316.497,273.252z"/>
<g>
	<path style="fill:#38C20E;" d="M316.176,271.17c0,0-10.76-7.013-14.235-2.981c-3.474,4.036-5.729,7.466-5.729,7.466l4.32-3.222
		l-0.403,1.644l4.233-2.528l-0.413,1.003l4.719-1.863l-0.446,1.111l7.883,0.212l0.068-0.841L316.176,271.17L316.176,271.17z"/>
	<path style="fill:#38C20E;" d="M316.871,271.037c0,0,11.926-3.755,14.382-1.788c2.456,1.967,4.909,7.308,4.909,7.308l-3.946-3.283
		l0.23,1.554l-3.931-2.633l0.306,0.956l-4.481-2.047l0.327,1.061l-7.822-0.345l0.022-0.784L316.871,271.037L316.871,271.037z"/>
	<path style="fill:#38C20E;" d="M316.533,271.727c0,0,8.268,0.018,11.714,4.604c3.445,4.582,3.121,8.772,3.121,8.772
		c-1.475-1.748-2.118-3.834-4.417-5.244l-0.169,2.075l-2.819-4.629l-0.413,1.302l-2.528-3.075l-0.345,1.247l-3.165-3.222
		c0,0-1.842-1.385-0.981-1.831h0.003V271.727z"/>
	<path style="fill:#38C20E;" d="M315.895,271.608c0,0-8.264-0.205-11.833,4.284c-3.564,4.489-3.355,8.686-3.355,8.686
		c1.522-1.709,2.219-3.777,4.557-5.121l0.111,2.083l2.942-4.553l0.377,1.317l2.607-3.006l0.313,1.256l3.247-3.136
		C314.864,273.414,316.741,272.08,315.895,271.608z"/>
	<path style="fill:#38C20E;" d="M316.421,270.469c0,0-2.083-9.229-3.596-9.675c-1.514-0.446-8.502,3.398-8.502,3.398l-1.798,2.162
		l4.589-1.421l-0.399,1.367l4.258-1.238l-0.374,1.136c0,0,1.554-0.227,2.73,1.363c1.176,1.59,2.852,3.607,2.852,3.607l0.604-0.183
		l-0.359-0.518h-0.004V270.469z"/>
	<path style="fill:#38C20E;" d="M321.078,262.359c-1.461,0.798-3.863,6.485-4.6,8.722c-0.226,0.69,0.313,0.266,0.313,0.266
		s1.878-3.233,3.039-3.096c1.161,0.14,1.565,1.222,1.565,1.222l-0.169-2.32c1.903,0.241,3.467,1.266,3.413,1.107l-0.582-1.698
		l3.571,1.77c-0.295-2.014-4.862-6.898-6.55-5.977L321.078,262.359L321.078,262.359z"/>
</g>
<circle style="fill:#27A600;" cx="316.559" cy="271.63" r="1.574"/>
<ellipse transform="matrix(-0.9974 -0.0723 0.0723 -0.9974 610.0759 573.1519)" style="fill:#D7680F;" cx="315.411" cy="275.535" rx="1.39" ry="1.592"/>
<ellipse style="fill:#E59C0B;" cx="315.088" cy="275.152" rx="0.645" ry="0.738"/>
<ellipse transform="matrix(-0.9974 -0.0723 0.0723 -0.9974 613.9223 569.9149)" style="fill:#D7680F;" cx="317.276" cy="273.846" rx="1.39" ry="1.592"/>
<ellipse style="fill:#E59C0B;" cx="316.949" cy="273.451" rx="0.645" ry="0.738"/>
<ellipse transform="matrix(-0.862 -0.5069 0.5069 -0.862 447.3015 667.7689)" style="fill:#D7680F;" cx="314.546" cy="272.999" rx="1.39" ry="1.592"/>
<ellipse transform="matrix(-0.862 -0.5069 0.5069 -0.862 447.3401 666.822)" style="fill:#E59C0B;" cx="314.436" cy="272.52" rx="0.646" ry="0.74"/>
<path style="fill:#FAC014;" d="M305.847,299.23c29.768,8.754,51.908,25.809,55.018,40.971l-123.459-36.299
	C248.228,292.835,276.075,290.479,305.847,299.23z"/>
<path style="fill:#663333;" d="M340.621,234.533c0.176,0.327,0.359,0.679,0.55,1.057c3.276,6.506,8.668,21.018,5.11,41.424
	c-4.927,28.286-20.672,39.522-20.672,39.522c4.435,3.73,8.74,5.628,12.875,5.254c0,0,14.199-15.037,15.544-46.164
	c1.071-24.844-7.071-38.598-10.404-43.14c0.04-0.097,0.076-0.194,0.104-0.298c0.507-1.73-0.482-3.542-2.212-4.05
	c-1.73-0.51-3.542,0.478-4.054,2.208c-0.507,1.73,0.482,3.546,2.212,4.054c0.313,0.093,0.629,0.137,0.938,0.133h0.008V234.533z"/>
<g>
	<path style="fill:#38C20E;" d="M339.873,229.656c0,0-25.229-16.451-33.372-6.992c-8.146,9.459-13.429,17.504-13.429,17.504
		l10.128-7.56l-0.945,3.863l9.93-5.927l-0.971,2.352l11.069-4.37l-1.05,2.607l18.49,0.493l0.155-1.975L339.873,229.656z"/>
	<path style="fill:#38C20E;" d="M341.499,229.336c0,0,27.966-8.808,33.728-4.19c5.758,4.614,11.505,17.137,11.505,17.137l-9.25-7.7
		l0.543,3.643l-9.222-6.172l0.723,2.244l-10.509-4.805l0.773,2.489l-18.342-0.809l0.047-1.838L341.499,229.336L341.499,229.336z"/>
	<path style="fill:#38C20E;" d="M340.707,230.962c0,0,19.392,0.043,27.47,10.789c8.077,10.746,7.319,20.564,7.319,20.564
		c-3.452-4.1-4.967-8.988-10.358-12.289l-0.392,4.866l-6.611-10.857l-0.967,3.057l-5.927-7.207l-0.812,2.924l-7.423-7.56
		c0,0-4.316-3.247-2.305-4.291L340.707,230.962z"/>
	<path style="fill:#38C20E;" d="M339.219,230.685c0,0-19.385-0.478-27.746,10.048c-8.365,10.527-7.869,20.363-7.869,20.363
		c3.56-4.003,5.208-8.851,10.681-12.009l0.259,4.877l6.902-10.674l0.881,3.082l6.117-7.046l0.733,2.945l7.621-7.355
		c0,0,4.402-3.129,2.417-4.23L339.219,230.685z"/>
	<path style="fill:#38C20E;" d="M340.452,228.013c0,0-4.884-21.644-8.433-22.69c-3.549-1.043-19.939,7.97-19.939,7.97l-4.219,5.064
		l10.764-3.326l-0.942,3.204l9.98-2.899l-0.874,2.661c0,0,3.636-0.532,6.399,3.197c2.762,3.73,6.69,8.462,6.69,8.462l1.417-0.431
		l-0.841-1.208L340.452,228.013L340.452,228.013z"/>
	<path style="fill:#38C20E;" d="M351.368,208.994c-3.42,1.867-9.06,15.202-10.785,20.442c-0.536,1.622,0.726,0.626,0.726,0.626
		s4.402-7.585,7.128-7.251c2.726,0.331,3.672,2.866,3.672,2.866l-0.388-5.441c4.463,0.572,8.128,2.967,7.998,2.6l-1.371-3.982
		l8.376,4.158C366.042,218.281,355.327,206.833,351.368,208.994z"/>
	<circle style="fill:#38C20E;" cx="340.758" cy="230.744" r="3.688"/>
</g>
<ellipse transform="matrix(-0.9974 -0.0723 0.0723 -0.9974 657.9016 503.5795)" style="fill:#D7680F;" cx="338.065" cy="239.883" rx="3.257" ry="3.732"/>
<ellipse transform="matrix(-0.9974 -0.0723 0.0723 -0.9974 656.5069 501.7344)" style="fill:#E59C0B;" cx="337.334" cy="238.985" rx="1.516" ry="1.737"/>
<ellipse transform="matrix(-0.9974 -0.0723 0.0723 -0.9974 666.9125 495.9497)" style="fill:#D7680F;" cx="342.432" cy="235.905" rx="3.257" ry="3.732"/>
<ellipse transform="matrix(-0.9974 -0.0723 0.0723 -0.9974 665.4978 494.1038)" style="fill:#E59C0B;" cx="341.691" cy="235.007" rx="1.516" ry="1.737"/>
<ellipse transform="matrix(-0.862 -0.5069 0.5069 -0.862 507.1252 605.9988)" style="fill:#D7680F;" cx="336.05" cy="233.971" rx="3.257" ry="3.732"/>
<ellipse transform="matrix(-0.862 -0.5069 0.5069 -0.862 507.231 603.7521)" style="fill:#E59C0B;" cx="335.797" cy="232.833" rx="1.516" ry="1.737"/>
<circle style="fill:#FAC014;" cx="277.613" cy="208.665" r="16.699"/>
<path style="fill:#BAE6FF;" d="M254.209,205.2c5.258,1.547,8.815,6.096,9.355,11.229c0.999-0.018,2.021,0.111,3.035,0.41
	c3.24,0.953,5.635,3.391,6.665,6.355c1.946-1.453,4.528-2.007,7.035-1.27c3.197,0.938,5.359,3.705,5.686,6.826
	c0.611-0.011,1.229,0.068,1.849,0.248c3.237,0.953,5.093,4.348,4.14,7.588c-0.273,0.928-0.748,1.741-1.364,2.41l-19.439-5.714
	l-8.329-2.449L225.5,219.856c-0.036-1.01,0.086-2.05,0.388-3.075c1.5-5.1,6.848-8.02,11.951-6.521
	c0.536,0.155,1.046,0.356,1.532,0.593c3.035-4.88,9.056-7.351,14.839-5.65L254.209,205.2L254.209,205.2z"/>
<rect x="103.422" y="132.654" style="fill:#F9F9F9;" width="235.015" height="235.015"/>
<rect x="121.669" y="155.283" style="fill:#87AAFF;" width="198.521" height="151.812"/>
<path style="fill:#048C75;" d="M320.193,236.133v70.962H158.95c11.211-58.472,50.592-101.665,97.472-101.665
	C280.625,205.43,302.83,216.942,320.193,236.133z"/>
<path style="fill:#00CC96;" d="M249.717,307.095H121.668v-48.844c13.159-8.502,27.894-13.267,43.464-13.267
	C200.607,244.985,231.789,269.725,249.717,307.095z"/>
<circle style="fill:#FFE347;" cx="175.791" cy="195.82" r="18.097"/>
<path style="fill:#BAE6FF;" d="M150.401,199.367c5.937,0,11.023,3.639,13.152,8.812c1.035-0.327,2.14-0.503,3.28-0.503
	c3.658,0,6.895,1.806,8.873,4.568c1.576-2.108,4.09-3.47,6.923-3.47c3.61,0,6.704,2.216,7.995,5.359
	c0.629-0.198,1.299-0.306,1.996-0.306c3.657,0,6.625,2.963,6.625,6.625c0,1.046-0.244,2.039-0.676,2.92h-21.953h-9.409h-42.168
	c-0.349-1.043-0.536-2.158-0.536-3.316c0-5.761,4.668-10.43,10.43-10.43c0.604,0,1.194,0.054,1.77,0.151
	C138.367,203.772,143.865,199.367,150.401,199.367z"/>
<g>
</g>
<g>
</g>
<g>
</g>
<g>
</g>
<g>
</g>
<g>
</g>
<g>
</g>
<g>
</g>
<g>
</g>
<g>
</g>
<g>
</g>
<g>
</g>
<g>
</g>
<g>
</g>
<g>
</g>
</svg>
