<svg height="95" viewBox="0 0 500 95" width="500" xmlns="http://www.w3.org/2000/svg"><g fill="none" fill-rule="evenodd" transform="translate(-.371094 .102266)"><path d="m85.2733754 47.3053272c.0037601-7.3403179-2.1302745-14.5228528-6.1414382-20.6702791l14.907282-14.9072818-11.1969152-11.19691531-14.8949413 14.90728181c-12.5637777-8.19338776-28.7808943-8.19338776-41.3446718 0l-14.9196223-14.90728181-11.19691531 11.19691531 14.90728181 14.9072818c-8.19338776 12.5637775-8.19338776 28.7808944 0 41.3446716l-14.90728181 14.907282 11.19691531 11.1969152 14.9072818-14.907282c12.5637775 8.1933878 28.7808944 8.1933878 41.3446716 0l14.907282 14.907282 11.1969152-11.1969152-14.907282-14.8949413c4.0142286-6.1521159 6.1483962-13.3408153 6.1414382-20.6867332zm-60.1844482 0c-.0174772-9.0546401 5.4717144-17.2104474 13.8667454-20.6031256 8.3950311-3.3926782 18.0094889-1.3406986 24.287955 5.1836923 6.2784656 6.5243909 7.9597078 16.2105585 4.2471377 24.4691079l-14.6275647-14.6481323-11.2010288 11.2010288 14.6316782 14.6275647c-6.8553056 3.0819469-14.8062708 2.4737813-21.1130963-1.6149301-6.3068255-4.0887119-10.1072989-11.0989984-10.0918265-18.6152057z" fill="#052892" fill-rule="nonzero"/><path d="m165.79637 47.7546079c0 9.1449667-4.63599 17.4008395-12.891863 21.2112423l4.381963 5.7156042-9.017953 4.5724834-6.033138-8.0018459h-.19052c-14.924078 0-23.751511-10.859648-23.751511-23.497484s8.827433-23.497484 23.751511-23.497484 23.751511 10.859648 23.751511 23.497484zm-23.751511 14.2890105c8.446393 0 13.018876-6.5411915 13.018876-14.2890105 0-7.7478191-4.572483-14.2890106-13.018876-14.2890106-8.509899 0-13.082383 6.5411915-13.018876 14.2890106-.063507 7.747819 4.508977 14.2890105 13.018876 14.2890105zm40.39027 8.7639265c-7.366779 0-11.304195-4.5724834-11.304195-12.5108226v-18.9250006h9.843541v16.7657724c0 4.1914431 1.397147 6.4776847 5.080537 6.4776847 4.127936 0 5.906124-2.6672819 5.906124-6.7952183v-16.4482388h9.65302v30.6102359h-9.65302v-4.3819632c-1.714681 3.2388424-4.890017 5.2075505-9.526007 5.2075505zm39.437669 0c-9.144967 0-14.416024-6.9222318-14.416024-16.1307052 0-9.1449668 5.652098-16.1307053 14.543038-16.1307053 4.445469 0 7.938339 2.0957216 9.589513 5.2075505v-4.3819632h9.653021v30.6102359h-9.653021v-4.3184565c-1.651174 3.0483222-5.461577 5.1440438-9.716527 5.1440438zm2.794295-8.0653526c4.826511 0 7.303273-3.6198827 7.303273-8.0653526 0-4.3819633-2.476762-8.001846-7.303273-8.001846-4.508976 0-7.303272 3.3658559-7.303272 8.001846 0 4.63599 2.794296 8.0653526 7.303272 8.0653526zm24.640605-23.3704706h9.716527v4.4454699c1.778188-3.4293625 5.271058-5.2710572 9.907048-5.2710572 7.430285 0 11.177181 4.1914431 11.177181 12.5108226v18.9250006h-9.780033v-15.7496649c0-5.1440438-1.460655-7.4937922-5.398071-7.4937922-3.87391 0-5.906125 2.5402685-5.906125 7.2397653v16.0036918h-9.716527zm54.615774 23.052937c1.206628 0 2.476762-.0635067 3.365856-.1905201v7.747819c-1.397148.2540269-3.68339.5080537-6.477685.5080537-4.572483 0-10.859648-1.0161074-10.859648-11.2406883v-12.193289h-4.82651v-7.6843123h4.82651v-9.08146h9.716527v9.08146h6.922232v7.6843123h-6.922232v10.1610742c0 4.5089767 1.841695 5.2075505 4.25495 5.2075505zm21.211242 8.5098996c-8.954446 0-14.47953-4.3819632-14.47953-10.1610741h9.65302c0 2.0957215 2.032215 3.6198826 5.01703 3.6198826 2.095722 0 3.556376-1.0796141 3.556376-2.8578021 0-1.2066275-.57156-2.222735-2.222735-2.6037752l-7.493792-1.9052014c-5.080537-1.2701343-7.684312-4.44547-7.684312-8.8274332 0-5.7156042 5.01703-9.7165272 13.082383-9.7165272 8.954446 0 13.653943 3.7468961 13.653943 9.526007h-9.589513c0-2.1592282-1.587668-3.3658558-4.191444-3.3658558-2.095721 0-3.492869 1.0161074-3.492869 2.5402686 0 1.3971477.952601 2.2862416 2.603775 2.7307886l7.239766 1.9687082c4.699497 1.2701342 7.747819 4.1279363 7.747819 8.5098996 0 6.2871646-5.017031 10.5421144-13.399917 10.5421144zm35.500253-8.5098996c1.206628 0 2.476762-.0635067 3.365856-.1905201v7.747819c-1.397148.2540269-3.683389.5080537-6.477685.5080537-4.572483 0-10.859648-1.0161074-10.859648-11.2406883v-12.193289h-4.82651v-7.6843123h4.82651v-9.08146h9.716527v9.08146h6.922232v7.6843123h-6.922232v10.1610742c0 4.5089767 1.841695 5.2075505 4.25495 5.2075505zm21.147736 8.3828862c-9.144967 0-14.416024-6.9222318-14.416024-16.1307052 0-9.1449668 5.652097-16.1307053 14.543037-16.1307053 4.44547 0 7.938339 2.0957216 9.589514 5.2075505v-4.3819632h9.65302v30.6102359h-9.65302v-4.3184565c-1.651175 3.0483222-5.461577 5.1440438-9.716527 5.1440438zm2.794295-8.0653526c4.82651 0 7.303272-3.6198827 7.303272-8.0653526 0-4.3819633-2.476762-8.001846-7.303272-8.001846-4.508977 0-7.303272 3.3658559-7.303272 8.001846 0 4.63599 2.794295 8.0653526 7.303272 8.0653526zm24.640605-23.3704706h9.716527v4.4454699c1.333641-3.0483222 4.508977-5.2710572 8.763927-5.2710572 5.461577 0 8.255872 2.4132551 9.589513 5.6520975 1.651175-3.3023491 5.271058-5.6520975 9.780034-5.6520975 8.763927 0 10.859648 6.0331378 10.859648 12.4473159v18.9885073h-9.780034v-17.2103194c0-4.2549498-1.587667-6.0331377-4.572483-6.0331377-3.048322 0-5.144044 1.7146812-5.144044 7.4937922v15.7496649h-9.780034v-17.2738261c0-4.2549498-1.524161-5.969631-4.508976-5.969631-3.111829 0-5.207551 1.7146812-5.207551 7.4937922v15.7496649h-9.716527zm56.393962 0h9.716527v4.3819632c1.587668-2.9213088 5.39807-5.2075505 9.970554-5.2075505 8.382886 0 14.09849 6.4776848 14.09849 16.1307053 0 9.5895137-5.906124 16.1307052-14.352517 16.1307052-4.508977 0-8.192366-2.2862417-9.716527-5.1440438v17.0197992h-9.716527zm16.638759 23.3704706c4.254949 0 7.239765-3.3023491 7.239765-8.0653526 0-4.6994969-2.984816-8.001846-7.239765-8.001846-4.381964 0-7.366779 3.2388424-7.366779 8.001846 0 4.8265102 3.048322 8.0653526 7.366779 8.0653526z" fill="#1e2837"/></g></svg>